<?xml version="1.0" encoding="utf-8"?>
<!-- Generator: Adobe Illustrator 24.0.1, SVG Export Plug-In . SVG Version: 6.00 Build 0)  -->
<svg version="1.1" id="레이어_1" xmlns="http://www.w3.org/2000/svg" xmlns:xlink="http://www.w3.org/1999/xlink" x="0px"
	 y="0px" viewBox="0 0 664.1 469.6" style="enable-background:new 0 0 664.1 469.6;" xml:space="preserve">
<style type="text/css">
	.st0{fill:url(#SVGID_1_);}
	.st1{fill:#A8C0B4;}
	.st2{fill:#7C938F;}
	.st3{opacity:0.35;fill:url(#SVGID_2_);enable-background:new    ;}
	.st4{opacity:0.25;fill:#A8C0B4;enable-background:new    ;}
	.st5{opacity:0.25;fill:#7C938F;enable-background:new    ;}
	.st6{fill:#D1D1D1;}
	.st7{fill:#B2B2B2;}
</style>
<g>
	<g>
		
			<linearGradient id="SVGID_1_" gradientUnits="userSpaceOnUse" x1="329.6799" y1="282.501" x2="329.6799" y2="416.3618" gradientTransform="matrix(1 0 0 -1 0 470.1575)">
			<stop  offset="0.1749" style="stop-color:#A5D6D0"/>
			<stop  offset="0.2914" style="stop-color:#ACD8D0"/>
			<stop  offset="0.4553" style="stop-color:#BFDDD1"/>
			<stop  offset="0.6472" style="stop-color:#DAE3D2"/>
			<stop  offset="0.8588" style="stop-color:#FAEAD3"/>
			<stop  offset="0.8843" style="stop-color:#FEEAD3"/>
		</linearGradient>
		<path class="st0" d="M178.2,194.1c-0.1-1.2,9.1-25.5,17.2-36.1c10.6-14,19.5-26.9,27.6-36.9c7.5-9.2,21.9-15.8,27.5-22.5
			c7-8.5,12.7-9.8,20.8-16.9c8.1-7.1,14.3-13.6,23.5-16.8c14.5-5,29.7-11.6,43.9-6c6,2.3,15,6,23.2,19.9c15.8,27,67.4,42.1,92.9,77
			c23.9,32.7,26.5,38.3,26.5,38.3L178.2,194.1L178.2,194.1z"/>
		<path class="st1" d="M205.6,194.1c0-1.3,9.1-16.5,11.4-21.6c4.5-9.9,14-19.5,22.7-26.4c8.2-6.6,14.7-16.4,22.7-23.2
			c7.3-6.2,15.3-11.6,24.3-14.7c9-3.1,14.8-15.3,27.2-17.8c6.3-1.3,14.9-3.3,21.5-6.9c6.6-3.6,12.9-7.7,27.6-7.7
			c14.8,0,18.4,6.8,25.2,13.3c13.9,13.2,32.1,29.3,39.6,33.7c8.9,5.3,14.1,9.9,25.2,25.4c9.7,13.5,10.1,18.8,14.8,23.7
			c15.5,16.3,16.7,22.4,16.7,22.4L205.6,194.1L205.6,194.1z"/>
		<path class="st2" d="M209.7,194.1c0.1-0.6,3.1-4.6,3.5-5.1c7.5-10.1,12.5-15.5,21-24.9c6.8-7.4,15.3-10.7,24.1-14.9
			c12.1-5.8,36.1-14.9,48.6-16.9c22.6-3.6,21.9-22.7,58.4-30.5c10-2.1,18.5-1,24.7,3.9c6.1,4.8,8.4,13.6,20.8,23
			c5.1,3.9,17,8.3,21.7,11.4c6.8,4.5,13.1,15.9,23.2,20.2c7,3,17.4,11,21.6,17.4c7,10.7,6.8,16.5,6.8,16.5H209.7z"/>
		
			<linearGradient id="SVGID_2_" gradientUnits="userSpaceOnUse" x1="268.9848" y1="268.4028" x2="268.9848" y2="162.1061" gradientTransform="matrix(1 0 0 -1 0 470.1575)">
			<stop  offset="0.1749" style="stop-color:#A5D6D0"/>
			<stop  offset="0.2932" style="stop-color:#B0D9D0"/>
			<stop  offset="0.4966" style="stop-color:#CBE0D1"/>
			<stop  offset="0.7589" style="stop-color:#F0E8D3"/>
			<stop  offset="0.8614" style="stop-color:#FEEAD3"/>
		</linearGradient>
		<path class="st3" d="M335.3,275.2c-6.6-2.7-15.2-4.1-21.5-5.1c-12.5-1.9-18.2-10.8-27.2-13.1c-9-2.2-17-6.2-24.3-10.7
			c-8-5-14.4-12.1-22.6-17c-8.7-5.1-18.2-12.1-22.7-19.4c-2.3-3.8-11.4-14.9-11.4-15.9h-27.4c-0.1,0.9,9.1,18.7,17.2,26.5
			c10.6,10.2,19.5,19.7,27.6,27.1c7.5,6.8,21.9,11.6,27.5,16.5c7,6.2,12.7,7.2,20.8,12.4c8.1,5.2,14.3,10,23.5,12.3
			c14.5,3.7,29.7,8.5,43.9,4.4c5.5-1.6,13.6-4,21.3-12.4C347.2,280.4,341.4,277.7,335.3,275.2z"/>
		<path class="st4" d="M455.9,219c-10.1,3.1-16.4,11.5-23.2,14.8c-4.7,2.3-16.6,5.5-21.7,8.4c-12.5,6.9-14.8,13.4-20.8,16.8
			c-6.2,3.6-14.7,4.4-24.7,2.9c-36.5-5.7-35.8-19.7-58.4-22.3c-12.5-1.5-36.5-8.2-48.6-12.4c-8.8-3.1-17.4-5.5-24.1-10.9
			c-8.6-6.9-13.6-10.9-21-18.3c-0.4-0.4-3.4-3.3-3.5-3.8h-4.1c0,0.9,9.1,12.1,11.4,15.9c4.5,7.3,14,14.3,22.7,19.4
			c8.2,4.8,14.7,12,22.7,17c7.3,4.5,15.3,8.5,24.3,10.7c9,2.3,14.8,11.2,27.2,13.1c6.3,0.9,14.9,2.4,21.5,5.1s12.9,5.6,27.6,5.6
			c14.8,0,18.4-5,25.2-9.7c13.9-9.7,32.1-21.5,39.6-24.7c8.9-3.9,14.1-7.2,25.2-18.6c5.1-5.3,7.7-8.8,9.6-11.5
			C460.1,217.4,457.9,218.3,455.9,219z"/>
		<path class="st5" d="M209.7,194.1c0.1,0.5,3.1,3.4,3.5,3.8c7.5,7.4,12.5,11.4,21,18.3c6.8,5.4,15.3,7.9,24.1,10.9
			c12.1,4.2,36.1,10.9,48.6,12.4c22.6,2.6,21.9,16.7,58.4,22.3c10,1.6,18.5,0.7,24.7-2.9c6.1-3.5,8.4-9.9,20.8-16.8
			c5.1-2.8,17-6.1,21.7-8.4c6.8-3.3,13.1-11.6,23.2-14.8c7-2.2,17.4-8.1,21.6-12.8c7-7.9,6.8-12.1,6.8-12.1L209.7,194.1L209.7,194.1
			z"/>
	</g>
	<g>
		<polygon class="st6" points="332.5,368.1 326.9,368.1 306.6,412.9 313.3,412.9 329.6,376.4 345.8,412.9 352.8,412.9 		"/>
		<polygon class="st6" points="464.7,368.4 464.7,401.4 438.8,368.4 433.1,368.4 433.1,412.9 439.4,412.9 439.4,379.2 465.9,412.9 
			471,412.9 471,368.4 		"/>
		<path class="st6" d="M208.3,387.7c-9.3-2-11-4.2-11-7.6c0-3.8,3.4-6.3,8.4-6.3c4.2,0,8.1,1.3,12.5,5l3.8-5
			c-5.2-4.3-10-5.9-16.2-5.9c-8.6,0-14.9,5.2-14.9,12.6c0,8.3,6,11.3,15,13.2c8.9,1.9,10.6,4.1,10.6,7.5c0,4-3.6,6.6-8.8,6.6
			c-5.4,0-9.7-1.6-14.8-6.4l-4,4.8c5.8,5.4,11.7,7.6,18.6,7.6c9.1,0,15.4-5.3,15.4-13C222.9,393.7,218.5,389.9,208.3,387.7z"/>
		<polygon class="st7" points="201.8,326 193.1,313.3 191.3,313.3 191.3,335.5 193.3,335.5 193.3,317 201.6,329.1 201.9,329.1 
			210.3,317 210.3,335.5 212.3,335.5 212.3,313.3 210.5,313.3 		"/>
		<path class="st7" d="M262.4,326.2c0,5-2.6,7.8-7.1,7.8c-4.6,0-7.2-2.9-7.2-7.9v-12.8h-2v13c0,5.9,3.5,9.6,9.1,9.6
			c5.8,0,9.1-3.7,9.1-9.8v-12.8h-2V326.2z"/>
		<polygon class="st7" points="352.5,325.2 365,325.2 365,323.4 352.5,323.4 352.5,315.2 366.4,315.2 366.4,313.3 350.5,313.3 
			350.5,335.5 366.6,335.5 366.6,333.6 352.5,333.6 		"/>
		<path class="st7" d="M415.5,326.2c0,5-2.5,7.8-7,7.8c-4.6,0-7.2-2.9-7.2-7.9v-12.8h-2v13c0,5.9,3.5,9.6,9.2,9.6
			c5.7,0,9.1-3.7,9.1-9.8v-12.8h-2L415.5,326.2L415.5,326.2z"/>
		<polygon class="st7" points="469.1,313.3 460.4,326 451.8,313.3 450,313.3 450,335.5 451.9,335.5 451.9,317 460.2,329.1 
			460.6,329.1 468.9,317 468.9,335.5 470.9,335.5 470.9,313.3 		"/>
		<path class="st7" d="M306.5,323.4c-5.2-1.1-6.2-2.5-6.2-4.6c0-2.3,2.1-4,5.1-4c2.5,0,4.5,0.8,6.5,2.6l1.3-1.6
			c-2.5-2-4.7-2.8-7.8-2.8c-4.1,0-7.2,2.6-7.2,6c0,3.5,2.2,5.3,7.5,6.4c5.1,1,6.1,2.4,6.1,4.5c0,2.5-2.2,4.2-5.3,4.2
			c-3,0-5.2-0.9-7.9-3.3l-1.3,1.5c3,2.7,5.8,3.7,9.1,3.7c4.3,0,7.4-2.5,7.4-6.2C313.9,326.3,311.7,324.4,306.5,323.4z"/>
	</g>
</g>
</svg>
