<?xml version="1.0" encoding="utf-8"?>
<!-- Generator: Adobe Illustrator 24.0.1, SVG Export Plug-In . SVG Version: 6.00 Build 0)  -->
<svg version="1.1" id="레이어_1" xmlns="http://www.w3.org/2000/svg" xmlns:xlink="http://www.w3.org/1999/xlink" x="0px"
	 y="0px" viewBox="0 0 664.11 469.62" enable-background="new 0 0 664.11 469.62" xml:space="preserve">
<g>
	<g>
		<linearGradient id="SVGID_1_" gradientUnits="userSpaceOnUse" x1="329.6815" y1="187.6565" x2="329.6815" y2="53.7957">
			<stop  offset="0.1749" style="stop-color:#A5D6D0"/>
			<stop  offset="0.2914" style="stop-color:#ACD8D0"/>
			<stop  offset="0.4553" style="stop-color:#BFDDD1"/>
			<stop  offset="0.6472" style="stop-color:#DAE3D2"/>
			<stop  offset="0.8588" style="stop-color:#FAEAD3"/>
			<stop  offset="0.8843" style="stop-color:#FEEAD3"/>
		</linearGradient>
		<path fill="url(#SVGID_1_)" d="M178.18,194.08c-0.06-1.2,9.14-25.52,17.17-36.11c10.6-13.96,19.46-26.89,27.56-36.91
			c7.46-9.22,21.93-15.84,27.46-22.52c7.02-8.5,12.74-9.75,20.79-16.87c8.07-7.12,14.33-13.64,23.48-16.78
			c14.52-4.99,29.68-11.58,43.93-6.01c5.95,2.32,15.05,6.03,23.19,19.94c15.81,27.02,67.39,42.1,92.88,76.98
			c23.85,32.66,26.54,38.27,26.54,38.27H178.18z"/>
		<path fill="#A8C0B4" d="M205.55,194.08c0.03-1.26,9.09-16.51,11.41-21.65c4.46-9.89,13.98-19.46,22.66-26.44
			c8.2-6.6,14.67-16.38,22.65-23.16c7.3-6.21,15.26-11.61,24.31-14.67c9.02-3.06,14.77-15.29,27.22-17.83
			c6.27-1.29,14.92-3.29,21.48-6.92c6.56-3.62,12.86-7.7,27.62-7.7c14.78,0,18.44,6.84,25.17,13.26
			c13.9,13.23,32.1,29.28,39.56,33.69c8.91,5.27,14.12,9.88,25.21,25.35c9.69,13.53,10.1,18.76,14.79,23.7
			c15.52,16.31,16.69,22.38,16.69,22.38H205.55z"/>
		<path fill="#7C938F" d="M209.7,194.08c0.1-0.64,3.11-4.59,3.52-5.14c7.48-10.05,12.48-15.54,21.04-24.95
			c6.75-7.41,15.27-10.71,24.1-14.91c12.15-5.76,36.12-14.9,48.62-16.89c22.63-3.62,21.91-22.73,58.43-30.49
			c9.99-2.12,18.47-1,24.7,3.9c6.06,4.76,8.37,13.56,20.84,22.96c5.11,3.85,16.97,8.28,21.71,11.42
			c6.84,4.51,13.13,15.86,23.23,20.16c7.05,2.99,17.41,10.98,21.61,17.45c6.96,10.74,6.8,16.49,6.8,16.49H209.7z"/>
		<linearGradient id="SVGID_2_" gradientUnits="userSpaceOnUse" x1="269.0048" y1="201.7547" x2="269.0048" y2="308.0514">
			<stop  offset="0.1749" style="stop-color:#A5D6D0"/>
			<stop  offset="0.2932" style="stop-color:#B0D9D0"/>
			<stop  offset="0.4966" style="stop-color:#CBE0D1"/>
			<stop  offset="0.7589" style="stop-color:#F0E8D3"/>
			<stop  offset="0.8614" style="stop-color:#FEEAD3"/>
		</linearGradient>
		<path opacity="0.35" fill="url(#SVGID_2_)" d="M335.27,275.21c-6.56-2.66-15.21-4.13-21.48-5.07
			c-12.45-1.86-18.2-10.83-27.22-13.07c-9.04-2.25-17.01-6.21-24.31-10.75c-7.98-4.98-14.44-12.15-22.65-16.99
			c-8.68-5.12-18.19-12.13-22.66-19.38c-2.32-3.77-11.38-14.95-11.41-15.87h-27.38c-0.06,0.88,9.14,18.7,17.17,26.46
			c10.6,10.24,19.46,19.72,27.56,27.06c7.46,6.76,21.93,11.62,27.46,16.5c7.02,6.24,12.74,7.16,20.79,12.37
			c8.07,5.23,14.33,10.01,23.48,12.3c14.52,3.66,29.68,8.5,43.93,4.42c5.48-1.58,13.64-4.02,21.26-12.39
			C347.23,280.42,341.35,277.68,335.27,275.21z"/>
		<path opacity="0.25" fill="#A8C0B4" d="M455.9,218.96c-10.1,3.15-16.39,11.46-23.23,14.78c-4.74,2.3-16.6,5.54-21.71,8.37
			c-12.47,6.89-14.78,13.35-20.84,16.84c-6.23,3.59-14.72,4.42-24.7,2.85c-36.52-5.69-35.8-19.7-58.43-22.35
			c-12.5-1.47-36.47-8.17-48.62-12.38c-8.84-3.08-17.36-5.51-24.1-10.94c-8.56-6.89-13.56-10.93-21.04-18.29
			c-0.41-0.41-3.42-3.3-3.52-3.76h-4.15c0.03,0.92,9.09,12.1,11.41,15.87c4.46,7.25,13.98,14.26,22.66,19.38
			c8.2,4.84,14.67,12.01,22.65,16.99c7.3,4.54,15.26,8.51,24.31,10.75c9.02,2.25,14.77,11.21,27.22,13.07
			c6.27,0.94,14.92,2.41,21.48,5.07c6.56,2.66,12.86,5.64,27.62,5.64c14.78,0,18.44-5.02,25.17-9.72
			c13.9-9.69,32.1-21.46,39.56-24.7c8.91-3.86,14.12-7.24,25.21-18.59c5.14-5.26,7.66-8.8,9.61-11.52
			C460.13,217.43,457.88,218.34,455.9,218.96z"/>
		<path opacity="0.25" fill="#7C938F" d="M209.7,194.08c0.1,0.47,3.11,3.36,3.52,3.76c7.48,7.37,12.48,11.4,21.04,18.29
			c6.75,5.43,15.27,7.85,24.1,10.94c12.15,4.21,36.12,10.92,48.62,12.38c22.63,2.65,21.91,16.66,58.43,22.35
			c9.99,1.56,18.47,0.74,24.7-2.85c6.06-3.49,8.37-9.95,20.84-16.84c5.11-2.83,16.97-6.07,21.71-8.37
			c6.84-3.31,13.13-11.63,23.23-14.78c7.05-2.19,17.41-8.06,21.61-12.79c6.96-7.88,6.8-12.09,6.8-12.09H209.7z"/>
	</g>
	<g>
		<polygon fill="#575756" points="332.47,368.09 326.92,368.09 306.61,412.92 313.31,412.92 329.63,376.43 345.84,412.92 
			352.75,412.92 		"/>
		<polygon fill="#575756" points="464.67,368.39 464.67,401.37 438.77,368.39 433.06,368.39 433.06,412.92 439.35,412.92 
			439.35,379.16 465.93,412.92 470.95,412.92 470.95,368.39 		"/>
		<path fill="#575756" d="M208.26,387.7c-9.32-2.01-11.03-4.17-11.03-7.61c0-3.8,3.44-6.27,8.36-6.27c4.18,0,8.12,1.25,12.54,5.01
			l3.75-5.01c-5.18-4.32-10.03-5.92-16.17-5.92c-8.64,0-14.89,5.21-14.89,12.57c0,8.28,6.01,11.25,15.04,13.23
			c8.9,1.88,10.57,4.06,10.57,7.46c0,3.99-3.61,6.6-8.79,6.6c-5.45,0-9.72-1.63-14.8-6.42l-4.04,4.76
			c5.84,5.37,11.73,7.59,18.65,7.59c9.1,0,15.44-5.31,15.44-13C222.88,393.74,218.51,389.93,208.26,387.7z"/>
		<polygon fill="#575756" points="201.82,326.03 193.15,313.27 191.33,313.27 191.33,335.51 193.28,335.51 193.28,316.95 
			201.59,329.11 201.95,329.11 210.29,316.95 210.29,335.51 212.32,335.51 212.32,313.27 210.48,313.27 		"/>
		<path fill="#575756" d="M262.42,326.22c0,4.95-2.59,7.76-7.07,7.76c-4.6,0-7.2-2.87-7.2-7.9v-12.81h-2.02v12.95
			c0,5.93,3.49,9.63,9.15,9.63c5.75,0,9.14-3.66,9.14-9.8v-12.77h-2V326.22z"/>
		<polygon fill="#575756" points="352.48,325.23 365.03,325.23 365.03,323.35 352.48,323.35 352.48,315.17 366.43,315.17 
			366.43,313.27 350.46,313.27 350.46,335.51 366.59,335.51 366.59,333.62 352.48,333.62 		"/>
		<path fill="#575756" d="M415.48,326.22c0,4.95-2.53,7.76-7.05,7.76c-4.58,0-7.19-2.87-7.19-7.9v-12.81h-2.03v12.95
			c0,5.93,3.51,9.63,9.18,9.63c5.7,0,9.14-3.66,9.14-9.8v-12.77h-2.03V326.22z"/>
		<polygon fill="#575756" points="469.09,313.27 460.44,326.03 451.8,313.27 449.97,313.27 449.97,335.51 451.88,335.51 
			451.88,316.95 460.24,329.11 460.56,329.11 468.9,316.95 468.9,335.51 470.94,335.51 470.94,313.27 		"/>
		<path fill="#575756" d="M306.54,323.39c-5.21-1.06-6.19-2.49-6.19-4.61c0-2.33,2.14-3.97,5.14-3.97c2.47,0,4.48,0.75,6.54,2.56
			l1.27-1.6c-2.47-2.05-4.69-2.82-7.75-2.82c-4.11,0-7.24,2.56-7.24,5.98c0,3.45,2.16,5.3,7.51,6.37c5.1,1.03,6.06,2.36,6.06,4.46
			c0,2.53-2.2,4.2-5.34,4.2c-3.05,0-5.21-0.87-7.86-3.32l-1.32,1.51c3.04,2.71,5.79,3.7,9.09,3.7c4.33,0,7.44-2.48,7.44-6.24
			C313.89,326.31,311.7,324.43,306.54,323.39z"/>
	</g>
</g>
</svg>
