<?xml version="1.0" encoding="utf-8"?>
<!-- Generator: Adobe Illustrator 24.0.1, SVG Export Plug-In . SVG Version: 6.00 Build 0)  -->
<svg version="1.1" id="Layer_1" xmlns="http://www.w3.org/2000/svg" xmlns:xlink="http://www.w3.org/1999/xlink" x="0px" y="0px"
	 viewBox="0 0 100 9.82" enable-background="new 0 0 100 9.82" xml:space="preserve">
<g>
	<path fill="#262223" d="M0.001,9.819C0,6.549,0,3.278,0.001,0.008C2.93,0.011,5.86,0.01,8.79,0.009
		c0.611,0.004,1.211,0.269,1.64,0.7c1.353,1.376,1.364,3.857-0.018,5.218c-0.45,0.452-1.081,0.695-1.716,0.699
		C7.528,6.645,6.358,6.629,5.189,6.634C4.425,5.852,3.641,5.09,2.875,4.31c1.973,0.001,3.946-0.004,5.918,0.003
		C9.186,3.975,9.157,3.396,9.105,2.93C9.07,2.686,8.986,2.338,8.689,2.316C6.562,2.304,4.434,2.318,2.307,2.309
		c-0.008,2.503-0.006,5.007-0.001,7.51C1.537,9.818,0.769,9.816,0.001,9.819L0.001,9.819z"/>
	<path fill="#262223" d="M23.371,0.007c0.823,0.005,1.646,0.002,2.47,0.002c0.694,1.937,1.384,3.874,2.065,5.813
		c0.645-1.851,1.292-3.698,1.931-5.551c0.053-0.104,0.063-0.31,0.236-0.262c0.766-0.004,1.533,0.003,2.299-0.003
		c0.683,1.934,1.367,3.867,2.053,5.801c0.71-1.93,1.401-3.865,2.099-5.798c0.817-0.002,1.636,0.002,2.453-0.003
		c-1.172,3.271-2.353,6.538-3.526,9.811C34.78,9.818,34.11,9.82,33.44,9.816c-0.747-2.095-1.5-4.187-2.251-6.281
		c-0.759,2.091-1.503,4.189-2.256,6.282c-0.676,0.001-1.351-0.001-2.027,0.001C25.724,6.549,24.551,3.276,23.371,0.007L23.371,0.007
		z"/>
	<path fill="#262223" d="M39.42,9.819c0.001-3.271,0-6.541,0.001-9.811c3.316,0.002,6.634,0.004,9.95-0.001
		c-0.002,0.768-0.004,1.536-0.001,2.306c-2.549-0.003-5.097,0.002-7.645-0.003c-0.003,0.48-0.002,0.96-0.004,1.44
		c2.38,0.003,4.759,0.001,7.138,0.001c-0.001,0.775-0.002,1.551-0.001,2.326c-2.378,0-4.756-0.002-7.135,0
		c0,0.48-0.002,0.959,0.001,1.439c2.55,0.001,5.098-0.001,7.648,0.001c-0.002,0.768-0.003,1.533,0,2.301
		C46.054,9.819,42.737,9.814,39.42,9.819L39.42,9.819z"/>
	<path fill="#262223" d="M50.321,0.009c2.856,0.002,5.714,0.001,8.57,0c0.509-0.013,1.038-0.018,1.51,0.204
		c0.858,0.384,1.408,1.261,1.605,2.156c0.233,1.116,0.074,2.373-0.657,3.281c-0.409,0.542-1.047,0.901-1.725,0.953
		c-0.39,0.02-0.78,0.002-1.169,0.008c0.962,1.068,1.925,2.137,2.886,3.206c-1.059,0.004-2.118-0.003-3.178,0.001
		c-1.634-1.84-3.277-3.671-4.912-5.509c1.977-0.004,3.956,0.005,5.934-0.005c0.354,0.018,0.55-0.35,0.579-0.656
		c0.034-0.386,0.054-0.821-0.18-1.151c-0.113-0.163-0.323-0.191-0.505-0.188c-2.152,0.004-4.304,0.001-6.455,0.003
		c-0.006,2.503-0.001,5.006-0.003,7.508c-0.768-0.005-1.536-0.002-2.304-0.003C50.325,6.548,50.32,3.278,50.321,0.009L50.321,0.009z
		"/>
	<path fill="#262223" d="M86.656,0.012c3.312,0.001,6.623,0.001,9.936,0c0.004,0.765-0.001,1.529,0.002,2.292
		c-2.547,0.002-5.095-0.003-7.643,0.002c-0.003,0.48-0.004,0.962-0.001,1.443c1.731,0.003,3.46,0.005,5.19,0
		c0.642,0.002,1.283,0.003,1.926,0.001c0,0.775-0.001,1.551,0,2.326c-1.994,0.005-3.989-0.01-5.983,0.007
		c-0.378-0.003-0.756-0.008-1.133-0.007c-0.004,0.487-0.015,0.975-0.018,1.463c2.549-0.015,5.099-0.011,7.647-0.005
		c0.014,0.762-0.012,1.524,0.019,2.284c-3.316,0-6.633-0.001-9.949,0C86.673,6.55,86.646,3.281,86.656,0.012L86.656,0.012z"/>
	<path fill="#262223" d="M62.828,2.159c0.274-1.099,1.217-2.096,2.396-2.145C67.329,0.006,69.435,0,71.541,0.002
		c0.198,0.002,0.397,0.005,0.593,0.051c1.252,0.327,2.112,1.584,2.106,2.855c-0.001,2.302-0.001,4.604-0.001,6.906
		c-0.762,0.003-1.523-0.004-2.284,0.006c-0.024-1.039-0.005-2.078-0.013-3.118c-2.302-0.009-4.604,0.001-6.904-0.005
		c-0.007,1.04,0,2.079-0.004,3.119c-0.766-0.002-1.53,0-2.296-0.001c-0.003-0.837,0.01-1.674-0.01-2.51
		c0.007-1.216,0.002-2.432,0.003-3.648C62.738,3.156,62.692,2.648,62.828,2.159L62.828,2.159z M65.048,2.822
		c-0.031,0.524-0.007,1.051-0.01,1.577c2.302,0.005,4.604,0.005,6.906-0.001c-0.02-0.557,0.041-1.118-0.035-1.673
		c-0.031-0.266-0.275-0.458-0.542-0.422c-1.957,0.005-3.915-0.009-5.872,0.008C65.218,2.289,65.052,2.577,65.048,2.822L65.048,2.822
		z"/>
	<path fill="#262223" d="M75.105,0.003C76.488,0,77.871,0.004,79.254,0c0.901,0.022,1.803,0.01,2.704,0.013
		c0.602,0.004,1.225-0.052,1.805,0.153c1.141,0.369,2.038,1.444,2.102,2.655c0.04,0.929,0.004,1.859,0.016,2.789
		c-0.014,0.726,0.075,1.481-0.18,2.178c-0.193,0.607-0.649,1.066-1.106,1.484c-0.172,0.128-0.363,0.23-0.559,0.311
		c-0.91,0.325-1.882,0.214-2.827,0.231c-2.034-0.003-4.068,0.005-6.103-0.005C75.102,6.541,75.102,3.271,75.105,0.003L75.105,0.003z
		 M77.423,2.306c-0.005,1.739-0.005,3.478,0,5.218c1.729-0.004,3.458-0.002,5.188,0c0.281-0.003,0.606-0.04,0.797-0.275
		c0.167-0.192,0.152-0.466,0.16-0.704c-0.005-1.118-0.004-2.235,0-3.353c-0.008-0.21-0.004-0.446-0.154-0.61
		c-0.189-0.245-0.521-0.28-0.807-0.278C80.878,2.307,79.15,2.301,77.423,2.306L77.423,2.306z"/>
	<path fill="#262223" d="M14.408,0.085c0.442-0.106,0.9-0.073,1.35-0.075c1.425,0,2.852,0,4.276,0
		c0.401,0.002,0.808-0.025,1.202,0.072c0.775,0.172,1.465,0.661,1.919,1.308c0.362,0.525,0.514,1.17,0.509,1.802
		c-0.006,1.211,0.005,2.422-0.006,3.633c-0.013,0.772-0.329,1.538-0.894,2.071c-0.591,0.594-1.426,0.926-2.263,0.923
		c-1.799-0.001-3.598,0-5.396,0c-0.833-0.004-1.655-0.349-2.237-0.944c-0.575-0.553-0.88-1.35-0.875-2.143
		c0.005-1.269-0.007-2.539,0.006-3.809C12.02,1.565,13.104,0.37,14.408,0.085L14.408,0.085z M14.762,2.377
		c-0.337,0.115-0.476,0.48-0.465,0.812c-0.002,1.116,0.001,2.232-0.002,3.35c0.001,0.287,0.033,0.628,0.289,0.809
		c0.23,0.159,0.528,0.166,0.798,0.171c1.647-0.003,3.292-0.001,4.939-0.001c0.285-0.004,0.603-0.031,0.822-0.234
		c0.193-0.194,0.204-0.483,0.196-0.738c-0.007-1.148-0.001-2.296-0.003-3.443c0.006-0.237-0.074-0.495-0.28-0.63
		c-0.212-0.158-0.487-0.158-0.738-0.162c-1.553,0.006-3.104,0.003-4.656,0.002C15.363,2.316,15.052,2.279,14.762,2.377L14.762,2.377
		z"/>
	<path fill="#262223" d="M99.144,8.813c0.132-0.147,0.276-0.351,0.155-0.553c-0.166-0.323-0.595-0.179-0.884-0.214
		c-0.007,0.412-0.004,0.824-0.004,1.237c0.073,0.001,0.221,0.001,0.295,0.001c0.004-0.177,0.016-0.352,0.034-0.527
		c0.121,0.161,0.226,0.335,0.301,0.524c0.084,0,0.253,0.002,0.338,0.003C99.299,9.127,99.221,8.971,99.144,8.813z M98.715,8.606
		c0-0.086,0.001-0.258,0.001-0.344c0.136,0.039,0.339,0.025,0.338,0.219C98.973,8.589,98.829,8.578,98.715,8.606z"/>
	<path fill="#262223" d="M99.992,8.567c-0.025-0.745-0.879-1.268-1.561-0.982c-0.48,0.171-0.792,0.693-0.733,1.195
		c0.045,0.551,0.537,1.019,1.09,1.037C99.459,9.868,100.077,9.24,99.992,8.567z M99.693,8.679c0.033,0.626-0.741,1.095-1.272,0.745
		c-0.608-0.319-0.549-1.335,0.104-1.566C99.063,7.611,99.745,8.088,99.693,8.679z"/>
	<path fill="#FFFFFF" d="M99.144,8.813c0.132-0.147,0.276-0.351,0.155-0.553c-0.166-0.323-0.595-0.179-0.884-0.214
		c-0.007,0.412-0.004,0.824-0.004,1.237c0.073,0.001,0.221,0.001,0.295,0.001c0.004-0.177,0.016-0.352,0.034-0.527
		c0.121,0.161,0.226,0.335,0.301,0.524c0.084,0,0.253,0.002,0.338,0.003C99.299,9.127,99.221,8.971,99.144,8.813z M98.715,8.606
		c0-0.086,0.001-0.258,0.001-0.344c0.136,0.039,0.339,0.025,0.338,0.219C98.973,8.589,98.829,8.578,98.715,8.606z"/>
	<path fill="#262223" d="M99.144,8.813c0.132-0.147,0.276-0.351,0.155-0.553c-0.166-0.323-0.595-0.179-0.884-0.214
		c-0.007,0.412-0.004,0.824-0.004,1.237c0.073,0.001,0.221,0.001,0.295,0.001c0.004-0.177,0.016-0.352,0.034-0.527
		c0.121,0.161,0.226,0.335,0.301,0.524c0.084,0,0.253,0.002,0.338,0.003C99.299,9.127,99.221,8.971,99.144,8.813z M98.715,8.606
		c0-0.086,0.001-0.258,0.001-0.344c0.136,0.039,0.339,0.025,0.338,0.219C98.973,8.589,98.829,8.578,98.715,8.606z"/>
</g>
</svg>
